#!OML:ASF X:\für Bonn\!DataBase\2005_08_12_Daniel\c3d\Daniel.ASF
:FULLY-SPECIFIED
:DEGREES
203
root 4.40801 16.7784 -2.18766 -808.969 -80.6797 785.736
lowerback 22.1907 0.200792 2.83726
upperback 8.26867 -0.0312999 -4.5478
thorax -3.31974 -0.182998 -6.52877
lowerneck 17.7432 15.4766 2.44697
upperneck 15.2482 20.1111 -2.36546
head 2.751 9.77487 -1.67018
rclavicle -8.85058e-015 1.61202e-014
rhumerus -51.5748 -13.8569 -64.5761
rradius 18.1163
rwrist 33.9449
rhand -16.5299 7.75843
rfingers 7.12502
rthumb 9.68892 -21.9987
lclavicle -8.85058e-015 1.61202e-014
lhumerus -25.6127 20.3728 57.388
lradius 129.819
lwrist 210.867
lhand -4.10291 19.0696
lfingers 7.12502
lthumb 21.6551 47.8786
rfemur 0.268982 -8.88455 12.9033
rtibia 47.8063
rfoot -21.5997 2.92392
rtoes 1.9302
lfemur -51.7177 7.44273 -24.704
ltibia 107.943
lfoot 19.6867 -4.58435
ltoes -18.0058
204
root 4.42361 16.7872 -2.19806 -804.554 -80.6303 782.076
lowerback 21.5841 -0.0619332 2.80552
upperback 8.06144 -0.339267 -4.33936
thorax -3.28305 -0.32686 -6.19561
lowerneck 17.7274 15.5646 2.62802
upperneck 14.5437 20.3098 -2.71587
head 2.5745 9.90723 -1.83536
rclavicle 1.5148e-014 -1.68967e-014
rhumerus -52.2621 -14.9795 -62.3288
rradius 17.6154
rwrist 35.2006
rhand -16.1449 7.39817
rfingers 7.12502
rthumb 10.0603 -22.3414
lclavicle 1.5148e-014 -1.68967e-014
lhumerus -24.5873 19.9686 57.4401
lradius 129.827
lwrist 211.085
lhand -4.00426 19.085
lfingers 7.12502
lthumb 21.7499 47.8831
rfemur -0.613159 -9.11605 13.1848
rtibia 47.9577
rfoot -21.6633 2.67975
rtoes 2.17995
lfemur -50.16 7.15572 -24.8109
ltibia 107.655
lfoot 19.6694 -5.15234
ltoes -18.6731
205
root 4.4393 16.7989 -2.20796 -800.179 -80.5059 778.44
lowerback 20.9741 -0.333707 2.7442
upperback 7.86698 -0.669282 -4.14166
thorax -3.22761 -0.482238 -5.85719
lowerneck 17.6263 15.6291 2.8619
upperneck 13.9012 20.4882 -3.10327
head 2.44432 10.0301 -2.00904
rclavicle -3.11843e-015 5.56597e-015
rhumerus -52.9188 -15.9554 -60.2112
rradius 17.186
rwrist 36.439
rhand -15.6904 7.23195
rfingers 7.12502
rthumb 10.4989 -22.4859
lclavicle -3.11843e-015 5.56597e-015
lhumerus -23.5994 19.5772 57.5163
lradius 129.823
lwrist 211.335
lhand -3.99924 19.1167
lfingers 7.12502
lthumb 21.7547 47.9142
rfemur -1.45744 -9.26653 13.4475
rtibia 48.0785
rfoot -21.7141 2.4705
rtoes 2.87106
lfemur -48.6191 6.83849 -24.941
ltibia 107.302
lfoot 19.3811 -5.51332
ltoes -19.5433
206
root 4.45528 16.8127 -2.2174 -795.833 -80.338 774.807
lowerback 20.3865 -0.604736 2.66678
upperback 7.67451 -1.00303 -3.93131
thorax -3.17546 -0.640377 -5.50074
lowerneck 17.4344 15.6611 3.13532
upperneck 13.363 20.6275 -3.45478
head 2.364 10.1324 -2.16406
rclavicle -6.58474e-015 2.98177e-015
rhumerus -53.5493 -16.6969 -58.3161
rradius 16.8435
rwrist 37.5681
rhand -15.2247 7.24708
rfingers 7.12502
rthumb 10.9481 -22.4475
lclavicle -6.58474e-015 2.98177e-015
lhumerus -22.6669 19.158 57.6332
lradius 129.828
lwrist 211.546
lhand -4.0499 19.2186
lfingers 7.12502
lthumb 21.706 48.0218
rfemur -2.25765 -9.30609 13.744
rtibia 48.1522
rfoot -21.7749 2.1686
rtoes 3.60038
lfemur -47.0801 6.4923 -25.0577
ltibia 106.894
lfoot 18.825 -5.63146
ltoes -20.7404
207
root 4.47209 16.8282 -2.226 -791.495 -80.1331 771.17
lowerback 19.807 -0.893171 2.57559
upperback 7.4854 -1.36374 -3.71082
thorax -3.12004 -0.812536 -5.12513
lowerneck 17.1896 15.6736 3.47735
upperneck 12.8699 20.7526 -3.8432
head 2.32052 10.2288 -2.33289
rclavicle 8.68441e-015 4.45278e-014
rhumerus -54.1106 -17.3533 -56.5388
rradius 16.5095
rwrist 38.7736
rhand -14.8014 7.43574
rfingers 7.12502
rthumb 11.3562 -22.2368
lclavicle 8.68441e-015 4.45278e-014
lhumerus -21.7808 18.7611 57.7818
lradius 129.826
lwrist 211.732
lhand -4.17615 19.2978
lfingers 7.12502
lthumb 21.5848 48.1149
rfemur -3.02241 -9.23947 14.0807
rtibia 48.1795
rfoot -21.8346 1.82192
rtoes 4.43125
lfemur -45.5926 6.12303 -25.144
ltibia 106.442
lfoot 18.1116 -5.49566
ltoes -21.9018
208
root 4.48564 16.8475 -2.23731 -786.684 -79.8622 767.021
lowerback 19.1987 -1.22367 2.47514
upperback 7.31776 -1.78212 -3.46424
thorax -3.02479 -1.01317 -4.71006
lowerneck 16.9069 15.6787 3.85281
upperneck 12.4347 20.8699 -4.22424
head 2.30708 10.3203 -2.49785
rclavicle -1.54058e-015 2.38542e-015
rhumerus -54.5917 -17.8003 -55.0314
rradius 16.2219
rwrist 39.8518
rhand -14.4906 7.70928
rfingers 7.12502
rthumb 11.656 -21.9465
lclavicle -1.54058e-015 2.38542e-015
lhumerus -20.9659 18.3823 57.9886
lradius 129.857
lwrist 211.88
lhand -4.31492 19.3129
lfingers 7.12502
lthumb 21.4515 48.1453
rfemur -3.6928 -9.09313 14.4963
rtibia 48.1671
rfoot -21.9632 1.37863
rtoes 5.22893
lfemur -44.0851 5.62712 -25.1611
ltibia 105.929
lfoot 17.2731 -5.11592
ltoes -22.8941
209
root 4.49724 16.8668 -2.25103 -781.141 -79.5012 762.128
lowerback 18.5393 -1.61645 2.43353
upperback 7.16618 -2.27242 -3.19224
thorax -2.88519 -1.24835 -4.29517
lowerneck 16.6333 15.6669 4.26517
upperneck 11.9996 20.9684 -4.64052
head 2.30143 10.4028 -2.67982
rclavicle 9.6659e-015 1.74931e-014
rhumerus -54.9951 -18.0616 -53.7976
rradius 15.9605
rwrist 40.7734
rhand -14.3262 8.0946
rfingers 7.12502
rthumb 11.8146 -21.5521
lclavicle 9.6659e-015 1.74931e-014
lhumerus -20.1903 17.9799 58.2412
lradius 129.894
lwrist 212.019
lhand -4.45583 19.3906
lfingers 7.12502
lthumb 21.3162 48.2383
rfemur -4.32543 -8.95886 15
rtibia 48.1457
rfoot -22.1424 0.89026
rtoes 5.97788
lfemur -42.6388 4.95536 -25.0764
ltibia 105.381
lfoot 16.3939 -4.57896
ltoes -23.6712
